<svg width="28" height="32" viewBox="0 0 28 32" fill="none" xmlns="http://www.w3.org/2000/svg">
<path d="M1.98059 10.3652C1.42923 10.3652 0.961421 10.5575 0.576876 10.9421C0.192331 11.3266 0 11.788 0 12.3266V20.5958C0 21.1478 0.192273 21.6152 0.576876 21.9998C0.961421 22.3844 1.42923 22.5767 1.98059 22.5767C2.53154 22.5767 2.99651 22.3844 3.3751 21.9998C3.75293 21.6153 3.94237 21.1478 3.94237 20.5958V12.3266C3.94237 11.788 3.7501 11.3266 3.36549 10.9421C2.98089 10.5575 2.51916 10.3652 1.98059 10.3652Z" fill="#1F2937"/>
<path d="M17.9038 2.94205L19.2692 0.423241C19.3588 0.256486 19.3269 0.128612 19.1733 0.0386963C19.0064 -0.0388377 18.8783 0.00045004 18.7887 0.153782L17.4042 2.69273C16.186 2.1541 14.8974 1.88429 13.5387 1.88429C12.1796 1.88429 10.891 2.15416 9.67321 2.69273L8.28865 0.153782C8.19868 0.00045004 8.07052 -0.0384905 7.90411 0.0386963C7.75008 0.129017 7.7182 0.256486 7.80817 0.423241L9.17364 2.94205C7.78908 3.64813 6.68636 4.63148 5.86589 5.89424C5.04542 7.1577 4.63501 8.53838 4.63501 10.0387H22.423C22.423 8.53873 22.0126 7.15799 21.1922 5.89424C20.3716 4.63148 19.2753 3.64813 17.9038 2.94205ZM10.0096 6.6057C9.86196 6.75371 9.6856 6.82737 9.48059 6.82737C9.27519 6.82737 9.10241 6.75371 8.96146 6.6057C8.82051 6.45839 8.75004 6.28272 8.75004 6.07703C8.75004 5.87202 8.82051 5.69601 8.96146 5.54835C9.10241 5.40103 9.27559 5.32738 9.48059 5.32738C9.6856 5.32738 9.86196 5.40103 10.0096 5.54835C10.1569 5.69636 10.2309 5.87202 10.2309 6.07703C10.2305 6.28238 10.1566 6.45839 10.0096 6.6057ZM18.1152 6.6057C17.9739 6.75371 17.8007 6.82737 17.5961 6.82737C17.3906 6.82737 17.2143 6.75371 17.0669 6.6057C16.9193 6.45839 16.8457 6.28272 16.8457 6.07703C16.8457 5.87202 16.9193 5.69601 17.0669 5.54835C17.2143 5.40103 17.3906 5.32738 17.5961 5.32738C17.8011 5.32738 17.9739 5.40103 18.1152 5.54835C18.2562 5.69636 18.3266 5.87202 18.3266 6.07703C18.3266 6.28238 18.2562 6.45839 18.1152 6.6057Z" fill="#1F2937"/>
<path d="M4.71143 23.5383C4.71143 24.1286 4.91643 24.6283 5.32649 25.0383C5.7369 25.4484 6.23659 25.6534 6.82648 25.6534H8.24963L8.26913 30.0193C8.26913 30.5706 8.46141 31.0387 8.84595 31.4233C9.2305 31.8079 9.69229 32.0002 10.2305 32.0002C10.7815 32.0002 11.2496 31.8079 11.6342 31.4233C12.0188 31.0387 12.2111 30.5706 12.2111 30.0193V25.6538H14.8648V30.0193C14.8648 30.5706 15.0571 31.0387 15.4417 31.4233C15.8263 31.8079 16.294 32.0002 16.8454 32.0002C17.3964 32.0002 17.8645 31.8079 18.2491 31.4233C18.6337 31.0387 18.8259 30.5706 18.8259 30.0193V25.6538H20.2683C20.8451 25.6538 21.3383 25.4487 21.7492 25.0387C22.1592 24.6286 22.3643 24.1289 22.3643 23.5387V10.7305H4.71143V23.5383Z" fill="#1F2937"/>
<path d="M25.0962 10.3652C24.5576 10.3652 24.0962 10.5547 23.7116 10.9325C23.327 11.311 23.1348 11.776 23.1348 12.3266V20.5958C23.1348 21.1478 23.327 21.6152 23.7116 21.9998C24.0962 22.3844 24.5579 22.5767 25.0962 22.5767C25.6472 22.5767 26.1153 22.3844 26.4999 21.9998C26.8845 21.6152 27.0767 21.1478 27.0767 20.5958V12.3266C27.0767 11.7759 26.8845 11.311 26.4999 10.9325C26.1153 10.5547 25.6472 10.3652 25.0962 10.3652Z" fill="#1F2937"/>
</svg>
