<svg width="27" height="32" viewBox="0 0 27 32" fill="none" xmlns="http://www.w3.org/2000/svg">
<path d="M21.8199 17.9376C20.9396 13.5076 25.1445 10.9094 25.1445 10.9094C25.1445 10.9094 23.5062 8.53925 20.7529 7.9295C18.001 7.31841 16.6236 8.08191 15.249 8.65455C13.873 9.22858 13.1864 9.22858 13.1864 9.22858C11.2007 9.22858 9.7492 7.12616 5.96597 8.08331C3.3596 8.74106 0.615846 11.7498 0.120112 15.3409C-0.375621 18.9332 0.69415 23.5171 2.75672 27.0696C4.8193 30.625 6.92039 31.9611 8.41166 31.9995C9.903 32.0366 11.3916 30.9312 13.1864 30.662C14.9826 30.3956 16.0881 31.3129 17.8499 31.8087C19.6049 32.3031 20.2201 31.8444 22.2415 30.1251C24.2683 28.4058 26.103 23.4745 26.103 23.4745C26.103 23.4745 22.7001 22.3704 21.8199 17.9376Z" fill="#1F2937"/>
<path d="M17.9225 5.06308C19.8725 3.07607 19.212 0 19.212 0C19.212 0 16.4738 0.480646 14.6391 2.38941C12.8059 4.29958 13.1094 7.31658 13.1094 7.31658C13.1094 7.31658 15.9725 7.04881 17.9225 5.06308Z" fill="#1F2937"/>
</svg>
