<svg width="31" height="31" viewBox="0 0 31 31" fill="none" xmlns="http://www.w3.org/2000/svg">
<path fill-rule="evenodd" clip-rule="evenodd" d="M15.4875 11.6305C17.6512 11.6305 19.4053 13.3574 19.4053 15.4877C19.4053 17.6175 17.6512 19.3444 15.4875 19.3444C13.3238 19.3444 11.5697 17.6175 11.5697 15.4877C11.5697 13.3574 13.3238 11.6305 15.4875 11.6305ZM15.4875 10.0881C12.4583 10.0881 10.0026 12.5055 10.0026 15.4877C10.0026 18.4694 12.4583 20.8872 15.4875 20.8872C18.5167 20.8872 20.9724 18.4694 20.9724 15.4877C20.9724 12.5055 18.5167 10.0881 15.4875 10.0881ZM21.1417 8.79016C20.8376 8.79492 20.5417 8.88945 20.2912 9.06188C20.0406 9.2343 19.8466 9.47692 19.7335 9.75926C19.6205 10.0416 19.5933 10.3511 19.6556 10.6488C19.7179 10.9465 19.8667 11.2191 20.0834 11.4325C20.3002 11.6459 20.5751 11.7904 20.8738 11.848C21.1724 11.9056 21.4814 11.8736 21.762 11.7561C22.0425 11.6387 22.282 11.4409 22.4505 11.1877C22.619 10.9345 22.7089 10.6371 22.7089 10.3329C22.7056 9.92056 22.5387 9.52636 22.2448 9.23704C21.9509 8.94772 21.5541 8.78697 21.1417 8.79016ZM11.6589 7.11108H19.3161C21.8071 7.11108 23.8265 9.09906 23.8265 11.551V19.4239C23.8265 21.8763 21.8071 23.8638 19.3161 23.8638H11.6589C9.16787 23.8638 7.14847 21.8763 7.14847 19.4239V11.551C7.14847 9.09906 9.16784 7.11108 11.6589 7.11108ZM10.9367 5.57556C7.9758 5.57556 5.57548 7.93868 5.57548 10.8533V20.1216C5.57548 23.0367 7.97577 25.3994 10.9367 25.3994H20.0383C22.9992 25.3994 25.3995 23.0367 25.3995 20.1216V10.8533C25.3995 7.93866 22.9992 5.57556 20.0383 5.57556H10.9367ZM15.4875 0C24.041 0 30.975 6.93375 30.975 15.4877C30.975 24.0411 24.041 30.9749 15.4875 30.9749C6.93397 30.9749 0 24.0411 0 15.4877C0 6.93378 6.93397 0 15.4875 0Z" fill="#1F2937"/>
</svg>
