<svg width="31" height="31" viewBox="0 0 31 31" fill="none" xmlns="http://www.w3.org/2000/svg">
<path fill-rule="evenodd" clip-rule="evenodd" d="M15.4875 0C6.94215 0 0 6.94232 0 15.4877C0 24.033 6.94216 30.9749 15.4875 30.9749C24.0328 30.9749 30.975 24.033 30.975 15.4877C30.975 6.9423 24.0329 0 15.4875 0ZM24.7588 20.4937C24.653 20.7509 24.1538 21.1136 22.3994 21.3862C22.2482 21.4161 22.2028 21.5977 22.112 21.9912C22.0839 22.134 22.0485 22.2753 22.0062 22.4146C21.9608 22.5505 21.8852 22.6111 21.7491 22.6111H21.7339C21.6008 22.608 21.4686 22.5876 21.3407 22.5505C20.9912 22.4868 20.6371 22.4515 20.282 22.4449C20.0286 22.4431 19.7756 22.4632 19.5257 22.5052C18.9963 22.5962 18.5577 22.9136 18.0738 23.2464C17.3932 23.7305 16.6823 24.2295 15.5782 24.2295H15.3363C14.2321 24.2295 13.5213 23.7305 12.8407 23.2464C12.3719 22.9136 11.9181 22.5962 11.3888 22.5052C11.1389 22.4632 10.8859 22.4431 10.6325 22.4449C10.2765 22.4511 9.922 22.4916 9.5738 22.5659C9.44472 22.5974 9.31312 22.6176 9.18052 22.6261C9.11886 22.6329 9.05689 22.6165 9.0066 22.5802C8.95631 22.5439 8.92128 22.4902 8.90831 22.4296C8.86292 22.2783 8.83269 22.1271 8.8024 21.9912C8.72678 21.628 8.66633 21.4161 8.51508 21.3862C6.7606 21.1136 6.26152 20.7509 6.15562 20.4937C6.1385 20.4555 6.12827 20.4146 6.12539 20.3728C6.12436 20.3254 6.14071 20.2792 6.17135 20.243C6.20199 20.2068 6.24481 20.1831 6.29175 20.1763C8.98393 19.7225 10.1939 16.9698 10.2392 16.8489H10.2544C10.4208 16.516 10.451 16.2136 10.3451 15.9867C10.1636 15.5479 9.55864 15.3514 9.16542 15.2304C9.07321 15.2047 8.98236 15.1743 8.89321 15.1394C8.09158 14.822 8.03108 14.5045 8.06133 14.3379C8.12179 14.0508 8.48479 13.8539 8.80239 13.8539C8.87553 13.8528 8.94794 13.8685 9.01415 13.8996C9.37715 14.0658 9.69477 14.1563 9.96701 14.1563C10.3602 14.1563 10.5266 13.9901 10.5417 13.9752C10.5417 13.7936 10.5266 13.5971 10.5115 13.4001C10.4359 12.1299 10.33 10.5418 10.7384 9.63437C11.9483 6.92691 14.5044 6.71542 15.2606 6.71542H15.6387C16.395 6.71542 18.9661 6.92691 20.1761 9.63437C20.5844 10.5419 20.4786 12.1299 20.403 13.4001V13.4608C20.3878 13.627 20.3727 13.8086 20.3727 13.9752C20.3878 13.9901 20.5391 14.1414 20.8869 14.1563C21.1592 14.1414 21.4617 14.0508 21.7944 13.8996C21.8852 13.8605 21.9829 13.8399 22.0818 13.8389C22.1919 13.8407 22.3003 13.8665 22.3994 13.9145H22.4145C22.6716 14.0051 22.8531 14.2021 22.8531 14.3986C22.8682 14.5802 22.717 14.8673 22.0212 15.1394C21.9456 15.1698 21.8549 15.2001 21.7641 15.2304C21.3557 15.3513 20.7508 15.5479 20.5693 15.9867C20.4634 16.2136 20.4937 16.5161 20.66 16.8489H20.6751C20.7205 16.9698 21.9305 19.7225 24.6227 20.1763C24.6696 20.1831 24.7124 20.2068 24.7431 20.243C24.7737 20.2792 24.7901 20.3254 24.789 20.3728C24.7862 20.4146 24.7759 20.4555 24.7588 20.4937H24.7588Z" fill="#1F2937"/>
</svg>
